<svg xmlns="http://www.w3.org/2000/svg" viewBox="0 0 340 36" width="680" height="72">
  <defs>
    <linearGradient id="pulse-grad" x1="0" y1="0" x2="1" y2="0">
      <stop offset="0%" stop-color="#00d4aa" stop-opacity="0.3"/>
      <stop offset="42%" stop-color="#00d4aa"/>
      <stop offset="58%" stop-color="#ffd700"/>
      <stop offset="100%" stop-color="#ffa726" stop-opacity="0.3"/>
    </linearGradient>
  </defs>
  <!-- Mark -->
  <rect x="0" y="4" width="28" height="28" rx="6" fill="#111122" stroke="#00d4aa" stroke-width="0.8"/>
  <path d="M5,22 L9,22 L11,17 L14,25 L17,10 L20,20 L22,16 L25,22" fill="none" stroke="#00d4aa" stroke-width="1.8" stroke-linecap="round" stroke-linejoin="round"/>
  <path d="M5,22 L9,22 L11,17 L14,25 L17,10 L20,20 L22,16 L25,22" fill="none" stroke="#00d4aa" stroke-width="3.5" stroke-linecap="round" stroke-linejoin="round" opacity="0.1"/>
  <!-- Wordmark -->
  <text x="46" y="22" fill="#00d4aa" font-family="'SF Mono','Fira Code','JetBrains Mono',monospace" font-size="16" font-weight="700" letter-spacing="1.5">BREAKING</text>
  <text x="180" y="22" fill="#8888aa" font-family="'SF Mono','Fira Code','JetBrains Mono',monospace" font-size="16" font-weight="400" letter-spacing="1.5">TRADES</text>
  <!-- Pulse underline -->
  <path d="M46,30 L156,30 L166,26 L172,32 L180,16 L188,28 L192,24 L200,30 L330,30" fill="none" stroke="url(#pulse-grad)" stroke-width="1.8" stroke-linecap="round" stroke-linejoin="round"/>
  <circle cx="180" cy="16" r="2" fill="#ffd700" opacity="0.7"/>
</svg>
